<?xml version="1.0" encoding="utf-8"?>
<!-- Generator: Adobe Illustrator 16.0.0, SVG Export Plug-In . SVG Version: 6.00 Build 0)  -->
<!DOCTYPE svg PUBLIC "-//W3C//DTD SVG 1.1//EN" "http://www.w3.org/Graphics/SVG/1.1/DTD/svg11.dtd">
<svg version="1.1" id="Layer_1" xmlns="http://www.w3.org/2000/svg" xmlns:xlink="http://www.w3.org/1999/xlink" x="0px" y="0px"
	 width="375px" height="512px" viewBox="0 0 375 512" enable-background="new 0 0 375 512" xml:space="preserve">
<g>
	<g>
		<path fill="#24b662" d="M184.06,0h6.96c32.55,0.6,64.95,9.67,92.851,26.5c33.43,19.9,60.39,50.47,75.909,86.15
			c10,22.61,15.12,47.23,15.721,71.92v4.83c-0.5,17.89-3.58,35.64-8.61,52.79c-7.8,27.01-19.48,52.73-32.73,77.46
			C313.31,358.27,288.47,394.6,261.77,429.39c-21.09,27.351-43.24,53.9-66.83,79.141c-1.52,1.739-3.529,2.96-5.79,3.47h-2.25
			c-4.39-0.76-6.859-4.76-9.779-7.67c-32.2-35.13-62.221-72.29-89.641-111.27c-22.14-31.74-42.609-64.801-59.01-99.91
			C13.91,261.689,2.3,228.19,0.5,193.31v-8.79c0.529-22.35,4.74-44.66,13.02-65.45C27.9,82.25,54.38,50.35,87.74,29.18
			C116.36,10.82,150.11,0.81,184.06,0z M136.54,25.05C99.01,36.86,65.97,62.24,44.76,95.37c-19.64,30.17-29.24,66.77-26.8,102.7
			c2.49,30.62,13.13,59.89,25.92,87.59c12.979,27.67,28.61,54.02,45.5,79.47c29.58,44.42,63.04,86.15,98.6,125.91
			c46.12-51.68,89.08-106.62,123.89-166.64c14.61-25.631,27.69-52.291,36.721-80.44c6.27-19.97,10.529-40.86,9.699-61.88
			c-1-36.16-14.13-71.82-36.659-100.1c-21.15-26.87-50.54-47.18-83.23-57.26C205.48,14.44,169.39,14.55,136.54,25.05z"/>
	</g>
	<g>
		<path fill="#24b662" d="M175.03,120.7c15.66-3.07,32.41-0.42,46.28,7.5c13,7.29,23.521,18.95,29.34,32.68
			c5.19,11.97,6.74,25.46,4.53,38.31c-2.83,17.3-12.81,33.24-26.95,43.58c-11.13,8.24-24.84,12.92-38.689,13.2
			c-14.9,0.37-29.88-4.32-41.83-13.23c-14.75-10.75-24.9-27.64-27.26-45.76c-1.83-13.2,0.3-26.91,6.13-38.89
			C135.64,138.92,154.18,124.61,175.03,120.7z M180.53,137.11c-21.67,2.86-40.05,21.18-43.04,42.82
			c-2.539,15.79,2.921,32.55,14.261,43.81c8.189,8.28,19.26,13.71,30.87,14.84c14.949,1.72,30.479-3.78,41.149-14.37
			c10.61-10.33,16.36-25.46,15.17-40.24c-1.01-15.5-9.66-30.24-22.609-38.78C205.97,138.12,192.91,135.27,180.53,137.11z"/>
	</g>
</g>
</svg>
