<?xml version="1.0" encoding="utf-8"?>
<!-- Generator: Adobe Illustrator 16.0.0, SVG Export Plug-In . SVG Version: 6.00 Build 0)  -->
<!DOCTYPE svg PUBLIC "-//W3C//DTD SVG 1.1//EN" "http://www.w3.org/Graphics/SVG/1.1/DTD/svg11.dtd">
<svg version="1.1" id="Layer_1" xmlns="http://www.w3.org/2000/svg" xmlns:xlink="http://www.w3.org/1999/xlink" x="0px" y="0px"
	 width="482.982px" height="483px" viewBox="0 0 482.982 483" enable-background="new 0 0 482.982 483" xml:space="preserve">
<g>
	<g>
		<path fill="#24b662" d="M81.126,2.26c17.77-4.479,37.79,2.17,49.09,16.66c17.09,21.88,34.14,43.78,51.16,65.72
			c11.64,14.95,13.05,36.86,3.439,53.19c-5.069,8.35-12.109,15.29-17.489,23.42c-6.96,11.14-4.851,26.76,4.68,35.76
			c38.36,38.33,76.689,76.7,115.05,115.03c9.54,9.79,26.26,11.3,37.36,3.3c5.89-4.41,11.489-9.189,17.399-13.57
			c16.78-11.949,41.21-11.67,57.61,0.84c22.09,17.23,44.24,34.391,66.31,51.65c15.141,12.43,21.26,34.5,14.53,52.93
			c-2.55,7.391-6.99,14.07-12.63,19.461c-11.17,11.149-22.32,22.319-33.49,33.479c-4.71,4.62-9.12,9.68-14.81,13.16
			c-12.601,8.06-28.051,10.3-42.761,9.43c-21.58-1.34-42.33-8.53-61.83-17.54c-33.869-15.99-64.579-37.859-93.6-61.359
			c-22.85-18.631-44.6-38.561-65.649-59.19c-40.37-39.94-79.13-81.94-111.051-129.05c-13.92-20.92-26.539-42.91-35.229-66.56
			c-6.59-18.35-11.06-38.08-8.47-57.65c1.64-12.82,6.92-25.39,16.05-34.68c13.8-13.85,27.649-27.66,41.47-41.49
			C64.506,8.89,72.497,4.34,81.126,2.26z M84.986,21.21c-4.92,1.34-9.449,4.04-13.04,7.66c-13.64,13.67-27.329,27.3-40.96,40.99
			c-5.149,5.12-8.569,11.79-10.199,18.83c-3.07,13.37-1.101,27.32,2.34,40.42c6.279,22.82,17.35,44,29.77,64.04
			c10.38,16.63,21.95,32.49,34.11,47.85c22.96,28.84,48.04,55.93,74.09,81.99c24.38,24.32,49.69,47.74,76.56,69.289
			c29.44,23.371,60.65,45.221,95.48,59.791c16.62,6.739,34.319,12,52.43,11.46c10.19-0.45,20.98-3.17,28.41-10.561
			c13.83-13.84,27.68-27.66,41.5-41.51c8.59-8.67,10.7-22.95,4.84-33.681c-3.17-6.609-9.51-10.609-15.06-15.02
			c-17.091-13.27-34.15-26.6-51.24-39.88c-4-3.06-7.8-6.56-12.53-8.479c-9.729-4.09-21.7-2.58-29.88,4.18
			c-8.99,6.689-17.09,15.13-27.97,18.73c-16.69,5.969-36.46,1.799-49.19-10.58c-39.02-39.021-78.079-78-117.04-117.07
			c-14-14.12-17.55-37.16-8.539-54.87c4.31-8.59,11.22-15.45,16.869-23.13c8.051-9.99,8.15-25.36,0.17-35.42
			c-15.55-20.09-31.22-40.09-46.8-60.16c-2.899-3.76-5.72-7.7-9.649-10.46C102.506,20.59,93.256,19,84.986,21.21z"/>
	</g>
</g>
</svg>
